<svg aria-hidden="true" style="position: absolute; width: 0; height: 0; overflow: hidden;" version="1.1" xmlns="http://www.w3.org/2000/svg" xmlns:xlink="http://www.w3.org/1999/xlink">
<defs>
<symbol id="whatsapp" viewBox="0 0 28 32">
<path d="M23.806 6.069c-2.619-2.625-6.106-4.069-9.813-4.069-7.65 0-13.875 6.225-13.875 13.875 0 2.444 0.637 4.831 1.85 6.938l-1.969 7.188 7.356-1.931c2.025 1.106 4.306 1.688 6.631 1.688h0.006c7.644 0 14.006-6.225 14.006-13.875 0-3.706-1.575-7.188-4.194-9.813zM13.994 27.419c-2.075 0-4.106-0.556-5.875-1.606l-0.419-0.25-4.362 1.144 1.162-4.256-0.275-0.438c-1.156-1.837-1.763-3.956-1.763-6.137 0-6.356 5.175-11.531 11.538-11.531 3.081 0 5.975 1.2 8.15 3.381s3.512 5.075 3.506 8.156c0 6.362-5.306 11.537-11.662 11.537zM20.319 18.781c-0.344-0.175-2.050-1.012-2.369-1.125-0.319-0.119-0.55-0.175-0.781 0.175s-0.894 1.125-1.1 1.363c-0.2 0.231-0.406 0.262-0.75 0.087-2.037-1.019-3.375-1.819-4.719-4.125-0.356-0.613 0.356-0.569 1.019-1.894 0.113-0.231 0.056-0.431-0.031-0.606s-0.781-1.881-1.069-2.575c-0.281-0.675-0.569-0.581-0.781-0.594-0.2-0.012-0.431-0.012-0.662-0.012s-0.606 0.088-0.925 0.431c-0.319 0.35-1.213 1.188-1.213 2.894s1.244 3.356 1.412 3.587c0.175 0.231 2.444 3.731 5.925 5.238 2.2 0.95 3.063 1.031 4.162 0.869 0.669-0.1 2.050-0.837 2.337-1.65s0.288-1.506 0.2-1.65c-0.081-0.156-0.313-0.244-0.656-0.413z"></path>
</symbol>
<symbol id="whatesapp" viewBox="0 0 32 32">
<path fill="#3aa621" style="fill: var(--color1, #3aa621)" d="M15.141 0h1.75l0.906 0.094 0.719 0.094 0.547 0.094 0.641 0.141 0.5 0.125 0.484 0.141 0.672 0.219 0.656 0.25 0.578 0.25 0.594 0.281 0.391 0.203 0.375 0.219 0.359 0.203 0.359 0.234 0.25 0.156 0.219 0.156 0.281 0.203 0.219 0.156 0.25 0.203 0.203 0.156 0.406 0.344 0.156 0.141 0.125 0.109 0.25 0.234 0.172 0.172 0.125 0.109 0.188 0.203 0.203 0.203 0.109 0.125 0.172 0.188 0.141 0.172 0.156 0.172 0.313 0.391 0.156 0.203 0.219 0.297 0.203 0.297 0.125 0.172 0.203 0.313 0.25 0.406 0.25 0.438 0.172 0.313 0.125 0.25 0.203 0.422 0.25 0.563 0.188 0.469 0.203 0.563 0.156 0.484 0.156 0.547 0.156 0.641 0.125 0.625 0.109 0.703 0.078 0.688 0.063 0.672v1.5l-0.078 0.906-0.094 0.75-0.063 0.406-0.109 0.578-0.156 0.656-0.156 0.563-0.203 0.641-0.141 0.391-0.172 0.438-0.234 0.547-0.266 0.563-0.25 0.484-0.438 0.75-0.234 0.359-0.141 0.219-0.188 0.266-0.156 0.219-0.188 0.25-0.219 0.281-0.203 0.25-0.188 0.219-0.203 0.234-0.188 0.203-0.234 0.25-0.484 0.484-0.125 0.109-0.141 0.141-0.172 0.141-0.188 0.172-0.172 0.141-0.203 0.172-0.188 0.141-0.234 0.188-0.266 0.188-0.219 0.156-0.422 0.281-0.297 0.188-0.234 0.141-0.328 0.188-0.391 0.219-0.266 0.141-0.359 0.172-0.375 0.172-0.563 0.234-0.641 0.234-0.516 0.172-0.672 0.188-0.656 0.156-0.547 0.109-0.719 0.109-0.813 0.094-0.531 0.047h-1.563l-0.813-0.078-0.766-0.094-0.578-0.094-0.75-0.156-0.547-0.141-0.688-0.203-0.547-0.188-0.406-0.156-0.453-0.188-0.547-0.25-0.453-0.219-0.438-0.234-0.375-0.219-0.313-0.188-0.344-0.219-0.313-0.219-0.266-0.188-0.297-0.219-0.156-0.125-0.219-0.172-0.172-0.141-0.219-0.188-0.234-0.203-0.203-0.188-0.125-0.125-0.125-0.109-0.469-0.469-0.109-0.125-0.172-0.172-0.141-0.172-0.156-0.172-0.109-0.125-0.203-0.25-0.203-0.266-0.172-0.219-0.188-0.266-0.203-0.281-0.172-0.266-0.219-0.344-0.141-0.234-0.234-0.406-0.219-0.406-0.266-0.531-0.203-0.453-0.234-0.578-0.219-0.594-0.219-0.688-0.172-0.656-0.141-0.609-0.125-0.703-0.094-0.703-0.094-0.953v-1.75l0.078-0.781 0.063-0.531 0.109-0.688 0.156-0.75 0.141-0.563 0.172-0.594 0.219-0.641 0.188-0.5 0.281-0.656 0.156-0.344 0.125-0.25 0.203-0.391 0.203-0.359 0.25-0.422 0.141-0.219 0.172-0.266 0.125-0.188 0.203-0.281 0.188-0.266 0.172-0.219 0.188-0.234 0.109-0.141 0.203-0.234 0.141-0.172 0.188-0.203 0.109-0.125 0.109-0.109 0.109-0.125 0.484-0.484 0.125-0.109 0.219-0.203 0.172-0.141 0.172-0.156 0.172-0.141 0.219-0.172 0.234-0.188 0.25-0.188 0.266-0.188 0.313-0.219 0.25-0.156 0.313-0.203 0.453-0.266 0.375-0.203 0.453-0.234 0.5-0.234 0.516-0.219 0.531-0.203 0.734-0.25 0.656-0.188 0.516-0.125 0.609-0.125 0.766-0.125 0.5-0.063 0.641-0.063z"></path>
<path fill="#3aa621" style="fill: var(--color1, #3aa621)" d="M15.578 6h0.859l0.766 0.063 0.688 0.109 0.563 0.125 0.5 0.141 0.594 0.203 0.484 0.203 0.344 0.156 0.297 0.156 0.313 0.172 0.281 0.172 0.422 0.281 0.281 0.203 0.219 0.172 0.266 0.219 0.172 0.156 0.125 0.109 0.125 0.125 0.125 0.109 0.172 0.172 0.109 0.125 0.125 0.125 0.141 0.172 0.203 0.234 0.188 0.25 0.219 0.297 0.234 0.359 0.125 0.203 0.188 0.328 0.188 0.359 0.188 0.391 0.203 0.5 0.172 0.484 0.156 0.547 0.109 0.469 0.094 0.516 0.063 0.484 0.047 0.719v0.625l-0.031 0.531-0.063 0.547-0.094 0.547-0.094 0.422-0.109 0.406-0.141 0.453-0.141 0.375-0.188 0.453-0.25 0.516-0.188 0.344-0.156 0.266-0.172 0.266-0.125 0.188-0.156 0.219-0.156 0.203-0.203 0.25-0.125 0.156-0.188 0.203-0.109 0.125-0.188 0.203-0.203 0.203-0.125 0.109-0.172 0.156-0.172 0.141-0.141 0.125-0.266 0.203-0.234 0.172-0.203 0.141-0.266 0.172-0.313 0.188-0.344 0.188-0.469 0.234-0.328 0.141-0.313 0.125-0.313 0.109-0.375 0.125-0.75 0.188-0.406 0.078-0.578 0.078-0.547 0.047-0.422 0.016h-0.313l-0.578-0.031-0.563-0.063-0.5-0.078-0.578-0.125-0.453-0.125-0.516-0.172-0.438-0.172-0.563-0.25h-0.109l-4.891 1.156-0.188 0.016-0.156-0.063-0.109-0.109-0.047-0.094-0.016-0.156 0.047-0.266 0.391-1.891 0.594-2.891 0.016-0.125-0.219-0.453-0.172-0.422-0.172-0.469-0.125-0.406-0.125-0.469-0.094-0.453-0.094-0.594-0.047-0.484-0.031-0.609v-0.281l0.031-0.578 0.063-0.563 0.078-0.5 0.141-0.641 0.141-0.5 0.172-0.516 0.203-0.5 0.188-0.406 0.172-0.344 0.203-0.359 0.203-0.328 0.125-0.188 0.172-0.25 0.219-0.281 0.172-0.219 0.203-0.234 0.188-0.203 0.25-0.266 0.25-0.234 0.188-0.172 0.172-0.141 0.125-0.109 0.266-0.203 0.25-0.188 0.516-0.344 0.344-0.203 0.344-0.188 0.25-0.125 0.359-0.172 0.422-0.172 0.453-0.156 0.453-0.141 0.641-0.156 0.547-0.094 0.391-0.047 0.359-0.031z"></path>
<path fill="#fefefe" style="fill: var(--color2, #fefefe)" d="M15.578 6h0.859l0.766 0.063 0.688 0.109 0.563 0.125 0.5 0.141 0.594 0.203 0.484 0.203 0.344 0.156 0.297 0.156 0.313 0.172 0.281 0.172 0.422 0.281 0.281 0.203 0.219 0.172 0.266 0.219 0.172 0.156 0.125 0.109 0.125 0.125 0.125 0.109 0.172 0.172 0.109 0.125 0.125 0.125 0.141 0.172 0.203 0.234 0.188 0.25 0.219 0.297 0.234 0.359 0.125 0.203 0.188 0.328 0.188 0.359 0.188 0.391 0.203 0.5 0.172 0.484 0.156 0.547 0.109 0.469 0.094 0.516 0.063 0.484 0.047 0.719v0.625l-0.031 0.531-0.063 0.547-0.094 0.547-0.094 0.422-0.109 0.406-0.141 0.453-0.141 0.375-0.188 0.453-0.25 0.516-0.188 0.344-0.156 0.266-0.172 0.266-0.125 0.188-0.156 0.219-0.156 0.203-0.203 0.25-0.125 0.156-0.188 0.203-0.109 0.125-0.188 0.203-0.203 0.203-0.125 0.109-0.172 0.156-0.172 0.141-0.141 0.125-0.266 0.203-0.234 0.172-0.203 0.141-0.266 0.172-0.313 0.188-0.344 0.188-0.469 0.234-0.328 0.141-0.313 0.125-0.313 0.109-0.375 0.125-0.75 0.188-0.406 0.078-0.578 0.078-0.547 0.047-0.422 0.016h-0.313l-0.578-0.031-0.563-0.063-0.5-0.078-0.578-0.125-0.453-0.125-0.516-0.172-0.438-0.172-0.563-0.25h-0.109l-4.891 1.156-0.188 0.016-0.156-0.063-0.109-0.109-0.047-0.094-0.016-0.156 0.047-0.266 0.391-1.891 0.594-2.891 0.016-0.125-0.219-0.453-0.172-0.422-0.172-0.469-0.125-0.406-0.125-0.469-0.094-0.453-0.094-0.594-0.047-0.484-0.031-0.609v-0.281l0.031-0.578 0.063-0.563 0.078-0.5 0.141-0.641 0.141-0.5 0.172-0.516 0.203-0.5 0.188-0.406 0.172-0.344 0.203-0.359 0.203-0.328 0.125-0.188 0.172-0.25 0.219-0.281 0.172-0.219 0.203-0.234 0.188-0.203 0.25-0.266 0.25-0.234 0.188-0.172 0.172-0.141 0.125-0.109 0.266-0.203 0.25-0.188 0.516-0.344 0.344-0.203 0.344-0.188 0.25-0.125 0.359-0.172 0.422-0.172 0.453-0.156 0.453-0.141 0.641-0.156 0.547-0.094 0.391-0.047 0.359-0.031zM15.813 8.141l-0.5 0.031-0.484 0.063-0.438 0.078-0.453 0.109-0.328 0.094-0.438 0.156-0.406 0.172-0.5 0.25-0.422 0.25-0.344 0.234-0.172 0.125-0.219 0.172-0.203 0.172-0.203 0.188-0.234 0.219-0.25 0.266-0.141 0.156-0.141 0.172-0.156 0.203-0.203 0.281-0.172 0.266-0.219 0.375-0.219 0.422-0.109 0.266-0.078 0.172-0.141 0.375-0.141 0.469-0.125 0.531-0.078 0.484-0.047 0.469-0.016 0.391v0.422l0.031 0.5 0.078 0.578 0.109 0.531 0.125 0.438 0.141 0.422 0.188 0.453 0.297 0.609 0.156 0.297 0.031 0.078v0.141l-0.266 1.297-0.234 1.141-0.109 0.531v0.047l0.188-0.031 1.313-0.313 1.469-0.344h0.125l0.375 0.172 0.359 0.172 0.219 0.109 0.422 0.172 0.563 0.188 0.469 0.125 0.391 0.078 0.438 0.063 0.578 0.047h0.656l0.563-0.047 0.516-0.078 0.563-0.125 0.391-0.109 0.438-0.156 0.375-0.156 0.391-0.188 0.375-0.203 0.297-0.188 0.297-0.203 0.266-0.203 0.266-0.219 0.188-0.172 0.266-0.25 0.141-0.156 0.109-0.109 0.141-0.172 0.172-0.203 0.219-0.297 0.203-0.297 0.203-0.328 0.203-0.375 0.203-0.422 0.188-0.469 0.172-0.531 0.125-0.531 0.078-0.484 0.063-0.625 0.016-0.516-0.031-0.609-0.063-0.531-0.078-0.422-0.094-0.406-0.141-0.469-0.188-0.5-0.188-0.406-0.203-0.391-0.156-0.266-0.172-0.266-0.219-0.313-0.219-0.281-0.141-0.156-0.109-0.125-0.281-0.313h-0.031v-0.031l-0.125-0.109-0.125-0.125-0.172-0.141-0.219-0.188-0.297-0.219-0.25-0.172-0.297-0.188-0.344-0.188-0.25-0.125-0.297-0.141-0.438-0.172-0.469-0.156-0.5-0.125-0.406-0.078-0.453-0.063-0.344-0.031-0.328-0.016z"></path>
<path fill="#fefefe" style="fill: var(--color2, #fefefe)" d="M12.594 11.141h0.281l0.172 0.063 0.172 0.109 0.125 0.156 0.125 0.25 0.219 0.484 0.281 0.641 0.203 0.453 0.078 0.203 0.016 0.094v0.156l-0.063 0.203-0.094 0.156-0.188 0.25-0.156 0.203-0.109 0.156-0.078 0.188-0.016 0.219 0.031 0.172 0.109 0.219 0.172 0.234 0.203 0.25 0.344 0.375 0.375 0.375 0.125 0.109 0.203 0.188 0.172 0.141 0.156 0.141 0.172 0.141 0.234 0.188 0.219 0.156 0.25 0.172 0.219 0.141 0.25 0.141 0.234 0.094 0.094 0.016h0.172l0.141-0.031 0.172-0.094 0.203-0.188 0.203-0.203 0.031-0.047h0.031l0.031-0.063 0.172-0.141 0.188-0.094 0.047-0.016h0.313l0.313 0.078 1.531 0.438 0.25 0.094 0.172 0.109 0.125 0.141 0.078 0.172 0.031 0.109v0.219l-0.063 0.203-0.141 0.234-0.109 0.156-0.172 0.219-0.188 0.219-0.219 0.219-0.125 0.109-0.234 0.172-0.219 0.125-0.234 0.094-0.328 0.078-0.328 0.047-0.219 0.016h-0.344l-0.438-0.047-0.484-0.094-0.391-0.109-0.391-0.141-0.391-0.172-0.406-0.203-0.344-0.203-0.25-0.156-0.297-0.203-0.297-0.219-0.219-0.172-0.25-0.203-0.234-0.203-0.172-0.156-0.125-0.109-0.188-0.172-0.109-0.109-0.125-0.109-0.188-0.188v-0.031h-0.031l-0.109-0.125-0.109-0.109-0.141-0.172-0.203-0.219-0.172-0.219-0.219-0.281-0.25-0.375-0.156-0.25-0.188-0.344-0.156-0.328-0.141-0.359-0.109-0.359-0.078-0.375-0.047-0.359v-0.563l0.047-0.313 0.078-0.266 0.125-0.266 0.156-0.25 0.188-0.25 0.141-0.156 0.109-0.125 0.188-0.188 0.125-0.109 0.203-0.156 0.141-0.063z"></path>
</symbol>
<symbol id="instagram" viewBox="0 0 32 32">
<path d="M9.373 0.112c-1.702 0.080-2.865 0.352-3.881 0.751-1.052 0.41-1.943 0.96-2.83 1.85s-1.433 1.782-1.84 2.836c-0.394 1.018-0.661 2.182-0.736 3.885s-0.092 2.251-0.083 6.596c0.008 4.345 0.027 4.889 0.11 6.596 0.081 1.702 0.352 2.864 0.751 3.881 0.411 1.052 0.96 1.943 1.851 2.83s1.782 1.432 2.838 1.84c1.018 0.393 2.181 0.661 3.885 0.736s2.251 0.092 6.595 0.084c4.344-0.008 4.891-0.028 6.597-0.109s2.863-0.354 3.88-0.751c1.052-0.411 1.944-0.96 2.83-1.851s1.433-1.784 1.839-2.838c0.394-1.018 0.662-2.181 0.736-3.883 0.075-1.708 0.092-2.253 0.084-6.597s-0.028-4.889-0.109-6.595-0.352-2.865-0.751-3.882c-0.411-1.052-0.96-1.942-1.85-2.83s-1.784-1.434-2.837-1.839c-1.018-0.394-2.181-0.662-3.885-0.736s-2.251-0.093-6.597-0.084c-4.345 0.008-4.889 0.027-6.596 0.11zM9.56 29.036c-1.56-0.068-2.407-0.327-2.972-0.544-0.747-0.288-1.28-0.636-1.843-1.193s-0.908-1.091-1.2-1.837c-0.219-0.565-0.483-1.411-0.556-2.971-0.079-1.686-0.096-2.192-0.105-6.464s0.007-4.777 0.081-6.464c0.067-1.559 0.327-2.407 0.544-2.971 0.288-0.748 0.635-1.28 1.193-1.842s1.091-0.909 1.838-1.2c0.564-0.22 1.41-0.482 2.969-0.556 1.687-0.080 2.193-0.096 6.464-0.105s4.778 0.007 6.466 0.081c1.559 0.068 2.407 0.326 2.971 0.544 0.748 0.288 1.28 0.634 1.842 1.193s0.909 1.090 1.201 1.838c0.22 0.562 0.482 1.408 0.556 2.968 0.080 1.687 0.099 2.193 0.106 6.464s-0.007 4.778-0.081 6.464c-0.068 1.56-0.327 2.407-0.544 2.973-0.288 0.747-0.635 1.28-1.194 1.842s-1.091 0.908-1.838 1.2c-0.563 0.22-1.41 0.482-2.968 0.557-1.687 0.079-2.193 0.096-6.466 0.105s-4.777-0.008-6.464-0.081zM22.604 7.449c0.002 1.059 0.861 1.917 1.92 1.917 1.060 0 1.92-0.86 1.92-1.92s-0.86-1.92-1.92-1.92c-0.001 0-0.003 0-0.004 0h0c-1.059 0.002-1.916 0.861-1.916 1.92 0 0.001 0 0.002 0 0.003v-0zM7.785 16.016c0.009 4.538 3.694 8.208 8.231 8.199s8.209-3.693 8.201-8.231c-0.009-4.538-3.695-8.209-8.232-8.2s-8.208 3.695-8.199 8.232zM10.667 16.010c0-0.003 0-0.007 0-0.011 0-2.946 2.388-5.333 5.333-5.333s5.333 2.388 5.333 5.333c0 2.942-2.382 5.327-5.322 5.333h-0.001c-0.003 0-0.007 0-0.011 0-2.942 0-5.327-2.382-5.333-5.322v-0.001z"></path>
</symbol>
<symbol id="telegram" viewBox="0 0 32 32">
<path d="M15.925 0c-8.804 0.042-15.925 7.19-15.925 16 0 0 0 0 0 0v0c0 8.837 7.163 16 16 16v0c8.837 0 16-7.163 16-16v0c0-8.837-7.163-16-16-16v0c-0.011-0-0.024-0-0.037-0s-0.026 0-0.039 0h0.002zM22.541 9.632c0.133-0.003 0.428 0.031 0.62 0.187 0.124 0.108 0.208 0.259 0.228 0.43l0 0.003c0.021 0.124 0.048 0.408 0.027 0.629-0.24 2.531-1.283 8.669-1.813 11.503-0.224 1.2-0.665 1.601-1.093 1.64-0.928 0.087-1.633-0.613-2.533-1.203-1.408-0.924-2.204-1.499-3.571-2.4-1.58-1.040-0.556-1.613 0.344-2.547 0.236-0.245 4.329-3.969 4.409-4.307 0.009-0.043 0.019-0.2-0.075-0.283s-0.232-0.055-0.332-0.032c-0.141 0.032-2.391 1.52-6.748 4.46-0.64 0.44-1.217 0.653-1.736 0.64-0.571-0.011-1.669-0.321-2.487-0.587-1.003-0.327-1.799-0.499-1.729-1.052 0.036-0.288 0.433-0.583 1.191-0.884 4.664-2.032 7.773-3.372 9.331-4.019 4.443-1.848 5.367-2.169 5.968-2.18z"></path>
</symbol>
</defs>
</svg>
